# xmcd
#
# Track frame offsets:
#	150
#	15975
#	33448
#	53254
#	72611
#	87621
#	102914
#	119895
#	138368
#	158713
#	173053
#	190264
#
# Disc length: 2815 seconds
#
# Revision: 1
# Processed by: cddbd v1.5.1PL0 Copyright (c) Steve Scherf et al.
# Submitted via: CDex 1.50Beta5
#
DISCID=9f0afd0c
DTITLE=西村由紀江 - もっと好きになるために
DYEAR=1900
DGENRE=
TTITLE0=a_あなたに最高のしあわせを
TTITLE1=b_ひだまり
TTITLE2=c_とまどい
TTITLE3=d_心が満ちるとき
TTITLE4=e_答えはあなたの中に
TTITLE5=f_木漏れ日の中で
TTITLE6=g_私にできること
TTITLE7=h_幻想の夜曲
TTITLE8=i_すき
TTITLE9=j_自由への扉
TTITLE10=k_オルゴールを聴きながら
TTITLE11=i・no・ri
EXTD=
EXTT0=
EXTT1=
EXTT2=
EXTT3=
EXTT4=
EXTT5=
EXTT6=
EXTT7=
EXTT8=
EXTT9=
EXTT10=
EXTT11=
PLAYORDER=
